<svg width="102" height="28" viewBox="0 0 102 28" fill="none" xmlns="http://www.w3.org/2000/svg">
    <rect x="49" width="53" height="28" rx="10" fill="black" />
    <path
        d="M81.544 8.928V20H80.088V11.744L76.408 20H75.384L71.688 11.728V20H70.232V8.928H71.8L75.896 18.08L79.992 8.928H81.544Z"
        fill="white" />
    <path
        d="M4.768 20.112C4.032 20.112 3.37067 19.984 2.784 19.728C2.208 19.4613 1.75467 19.0987 1.424 18.64C1.09333 18.1707 0.922667 17.632 0.912 17.024H2.464C2.51733 17.5467 2.73067 17.9893 3.104 18.352C3.488 18.704 4.04267 18.88 4.768 18.88C5.46133 18.88 6.00533 18.7093 6.4 18.368C6.80533 18.016 7.008 17.568 7.008 17.024C7.008 16.5973 6.89067 16.2507 6.656 15.984C6.42133 15.7173 6.128 15.5147 5.776 15.376C5.424 15.2373 4.94933 15.088 4.352 14.928C3.616 14.736 3.024 14.544 2.576 14.352C2.13867 14.16 1.76 13.8613 1.44 13.456C1.13067 13.04 0.976 12.4853 0.976 11.792C0.976 11.184 1.13067 10.6453 1.44 10.176C1.74933 9.70667 2.18133 9.344 2.736 9.088C3.30133 8.832 3.94667 8.704 4.672 8.704C5.71733 8.704 6.57067 8.96533 7.232 9.488C7.904 10.0107 8.28267 10.704 8.368 11.568H6.768C6.71467 11.1413 6.49067 10.768 6.096 10.448C5.70133 10.1173 5.17867 9.952 4.528 9.952C3.92 9.952 3.424 10.112 3.04 10.432C2.656 10.7413 2.464 11.1787 2.464 11.744C2.464 12.1493 2.576 12.48 2.8 12.736C3.03467 12.992 3.31733 13.1893 3.648 13.328C3.98933 13.456 4.464 13.6053 5.072 13.776C5.808 13.9787 6.4 14.1813 6.848 14.384C7.296 14.576 7.68 14.88 8 15.296C8.32 15.7013 8.48 16.256 8.48 16.96C8.48 17.504 8.336 18.016 8.048 18.496C7.76 18.976 7.33333 19.3653 6.768 19.664C6.20267 19.9627 5.536 20.112 4.768 20.112ZM11.3746 9.808C11.0973 9.808 10.8626 9.712 10.6706 9.52C10.4786 9.328 10.3826 9.09333 10.3826 8.816C10.3826 8.53867 10.4786 8.304 10.6706 8.112C10.8626 7.92 11.0973 7.824 11.3746 7.824C11.6413 7.824 11.8653 7.92 12.0466 8.112C12.2386 8.304 12.3346 8.53867 12.3346 8.816C12.3346 9.09333 12.2386 9.328 12.0466 9.52C11.8653 9.712 11.6413 9.808 11.3746 9.808ZM12.0786 11.232V20H10.6226V11.232H12.0786ZM15.6481 18.8H19.9521V20H13.9841V18.8L18.2401 12.416H14.0161V11.232H19.9201V12.416L15.6481 18.8ZM29.8414 15.28C29.8414 15.5573 29.8254 15.8507 29.7934 16.16H22.7854C22.8387 17.024 23.132 17.7013 23.6654 18.192C24.2094 18.672 24.8654 18.912 25.6334 18.912C26.2627 18.912 26.7854 18.768 27.2014 18.48C27.628 18.1813 27.9267 17.7867 28.0974 17.296H29.6654C29.4307 18.1387 28.9614 18.8267 28.2574 19.36C27.5534 19.8827 26.6787 20.144 25.6334 20.144C24.8014 20.144 24.0547 19.9573 23.3934 19.584C22.7427 19.2107 22.2307 18.6827 21.8574 18C21.484 17.3067 21.2974 16.5067 21.2974 15.6C21.2974 14.6933 21.4787 13.8987 21.8414 13.216C22.204 12.5333 22.7107 12.0107 23.3614 11.648C24.0227 11.2747 24.78 11.088 25.6334 11.088C26.4654 11.088 27.2014 11.2693 27.8414 11.632C28.4814 11.9947 28.972 12.496 29.3134 13.136C29.6654 13.7653 29.8414 14.48 29.8414 15.28ZM28.3374 14.976C28.3374 14.4213 28.2147 13.9467 27.9694 13.552C27.724 13.1467 27.388 12.8427 26.9614 12.64C26.5454 12.4267 26.0814 12.32 25.5694 12.32C24.8334 12.32 24.204 12.5547 23.6814 13.024C23.1694 13.4933 22.876 14.144 22.8014 14.976H28.3374ZM32.2273 20.096C31.9499 20.096 31.7153 20 31.5233 19.808C31.3313 19.616 31.2353 19.3813 31.2353 19.104C31.2353 18.8267 31.3313 18.592 31.5233 18.4C31.7153 18.208 31.9499 18.112 32.2273 18.112C32.4939 18.112 32.7179 18.208 32.8993 18.4C33.0913 18.592 33.1873 18.8267 33.1873 19.104C33.1873 19.3813 33.0913 19.616 32.8993 19.808C32.7179 20 32.4939 20.096 32.2273 20.096ZM32.2273 13.248C31.9499 13.248 31.7153 13.152 31.5233 12.96C31.3313 12.768 31.2353 12.5333 31.2353 12.256C31.2353 11.9787 31.3313 11.744 31.5233 11.552C31.7153 11.36 31.9499 11.264 32.2273 11.264C32.4939 11.264 32.7179 11.36 32.8993 11.552C33.0913 11.744 33.1873 11.9787 33.1873 12.256C33.1873 12.5333 33.0913 12.768 32.8993 12.96C32.7179 13.152 32.4939 13.248 32.2273 13.248Z"
        fill="#767676" />
</svg>